<mxfile host="app.diagrams.net" modified="2023-10-12T19:24:43.989Z" agent="Mozilla/5.0 (Windows NT 10.0; Win64; x64) AppleWebKit/537.36 (KHTML, like Gecko) Chrome/117.0.0.0 Safari/537.36" etag="hDKz_Yh2V5nkHgwsu08R" version="22.0.4" type="device">
  <diagram name="Page-1" id="Po5Km8ZeCA5UCwh9uSR4">
    <mxGraphModel dx="880" dy="478" grid="1" gridSize="10" guides="1" tooltips="1" connect="1" arrows="1" fold="1" page="1" pageScale="1" pageWidth="850" pageHeight="1100" math="0" shadow="0">
      <root>
        <mxCell id="0" />
        <mxCell id="1" parent="0" />
        <mxCell id="7gqt0PY7z3TmWNlQmAuE-3" value="" style="rounded=0;whiteSpace=wrap;html=1;" parent="1" vertex="1">
          <mxGeometry x="280" y="30" width="190" height="1320" as="geometry" />
        </mxCell>
        <mxCell id="oJB-THNjz2x2V4srmbNX-38" style="edgeStyle=orthogonalEdgeStyle;rounded=0;orthogonalLoop=1;jettySize=auto;html=1;exitX=0.5;exitY=0.5;exitDx=0;exitDy=0;exitPerimeter=0;entryX=0;entryY=0.5;entryDx=0;entryDy=0;" parent="1" source="7gqt0PY7z3TmWNlQmAuE-1" target="7gqt0PY7z3TmWNlQmAuE-12" edge="1">
          <mxGeometry relative="1" as="geometry" />
        </mxCell>
        <mxCell id="WboAUmktUYQKjb9mAFGN-16" style="edgeStyle=orthogonalEdgeStyle;rounded=0;orthogonalLoop=1;jettySize=auto;html=1;exitX=0.5;exitY=0.5;exitDx=0;exitDy=0;exitPerimeter=0;entryX=0;entryY=0.5;entryDx=0;entryDy=0;" edge="1" parent="1" source="7gqt0PY7z3TmWNlQmAuE-1" target="7gqt0PY7z3TmWNlQmAuE-9">
          <mxGeometry relative="1" as="geometry" />
        </mxCell>
        <mxCell id="WboAUmktUYQKjb9mAFGN-17" style="edgeStyle=orthogonalEdgeStyle;rounded=0;orthogonalLoop=1;jettySize=auto;html=1;exitX=0.5;exitY=0.5;exitDx=0;exitDy=0;exitPerimeter=0;entryX=0;entryY=0.5;entryDx=0;entryDy=0;" edge="1" parent="1" source="7gqt0PY7z3TmWNlQmAuE-1" target="7gqt0PY7z3TmWNlQmAuE-10">
          <mxGeometry relative="1" as="geometry" />
        </mxCell>
        <mxCell id="WboAUmktUYQKjb9mAFGN-18" style="edgeStyle=orthogonalEdgeStyle;rounded=0;orthogonalLoop=1;jettySize=auto;html=1;exitX=0.5;exitY=0.5;exitDx=0;exitDy=0;exitPerimeter=0;entryX=0;entryY=0.5;entryDx=0;entryDy=0;" edge="1" parent="1" source="7gqt0PY7z3TmWNlQmAuE-1" target="7gqt0PY7z3TmWNlQmAuE-11">
          <mxGeometry relative="1" as="geometry" />
        </mxCell>
        <mxCell id="WboAUmktUYQKjb9mAFGN-19" style="edgeStyle=orthogonalEdgeStyle;rounded=0;orthogonalLoop=1;jettySize=auto;html=1;exitX=0.5;exitY=0.5;exitDx=0;exitDy=0;exitPerimeter=0;entryX=0;entryY=0.5;entryDx=0;entryDy=0;" edge="1" parent="1" source="7gqt0PY7z3TmWNlQmAuE-1" target="oJB-THNjz2x2V4srmbNX-16">
          <mxGeometry relative="1" as="geometry" />
        </mxCell>
        <mxCell id="WboAUmktUYQKjb9mAFGN-20" style="edgeStyle=orthogonalEdgeStyle;rounded=0;orthogonalLoop=1;jettySize=auto;html=1;exitX=0.5;exitY=0.5;exitDx=0;exitDy=0;exitPerimeter=0;entryX=0;entryY=0.5;entryDx=0;entryDy=0;" edge="1" parent="1" source="7gqt0PY7z3TmWNlQmAuE-1" target="WboAUmktUYQKjb9mAFGN-2">
          <mxGeometry relative="1" as="geometry" />
        </mxCell>
        <mxCell id="WboAUmktUYQKjb9mAFGN-21" style="edgeStyle=orthogonalEdgeStyle;rounded=0;orthogonalLoop=1;jettySize=auto;html=1;exitX=0.5;exitY=0.5;exitDx=0;exitDy=0;exitPerimeter=0;entryX=0;entryY=0.5;entryDx=0;entryDy=0;" edge="1" parent="1" source="7gqt0PY7z3TmWNlQmAuE-1" target="WboAUmktUYQKjb9mAFGN-3">
          <mxGeometry relative="1" as="geometry" />
        </mxCell>
        <mxCell id="WboAUmktUYQKjb9mAFGN-22" style="edgeStyle=orthogonalEdgeStyle;rounded=0;orthogonalLoop=1;jettySize=auto;html=1;exitX=0.5;exitY=0.5;exitDx=0;exitDy=0;exitPerimeter=0;entryX=0;entryY=0.5;entryDx=0;entryDy=0;" edge="1" parent="1" source="7gqt0PY7z3TmWNlQmAuE-1" target="WboAUmktUYQKjb9mAFGN-4">
          <mxGeometry relative="1" as="geometry" />
        </mxCell>
        <mxCell id="WboAUmktUYQKjb9mAFGN-23" style="edgeStyle=orthogonalEdgeStyle;rounded=0;orthogonalLoop=1;jettySize=auto;html=1;exitX=0.5;exitY=0.5;exitDx=0;exitDy=0;exitPerimeter=0;entryX=0;entryY=0.5;entryDx=0;entryDy=0;" edge="1" parent="1" source="7gqt0PY7z3TmWNlQmAuE-1" target="oJB-THNjz2x2V4srmbNX-27">
          <mxGeometry relative="1" as="geometry" />
        </mxCell>
        <mxCell id="WboAUmktUYQKjb9mAFGN-26" style="edgeStyle=orthogonalEdgeStyle;rounded=0;orthogonalLoop=1;jettySize=auto;html=1;exitX=0.5;exitY=0.5;exitDx=0;exitDy=0;exitPerimeter=0;entryX=0;entryY=0.5;entryDx=0;entryDy=0;" edge="1" parent="1" source="7gqt0PY7z3TmWNlQmAuE-1" target="7gqt0PY7z3TmWNlQmAuE-8">
          <mxGeometry relative="1" as="geometry" />
        </mxCell>
        <mxCell id="WboAUmktUYQKjb9mAFGN-27" style="edgeStyle=orthogonalEdgeStyle;rounded=0;orthogonalLoop=1;jettySize=auto;html=1;exitX=0.5;exitY=0.5;exitDx=0;exitDy=0;exitPerimeter=0;entryX=0;entryY=0.5;entryDx=0;entryDy=0;" edge="1" parent="1" source="7gqt0PY7z3TmWNlQmAuE-1" target="7gqt0PY7z3TmWNlQmAuE-7">
          <mxGeometry relative="1" as="geometry" />
        </mxCell>
        <mxCell id="WboAUmktUYQKjb9mAFGN-28" style="edgeStyle=orthogonalEdgeStyle;rounded=0;orthogonalLoop=1;jettySize=auto;html=1;exitX=0.5;exitY=0.5;exitDx=0;exitDy=0;exitPerimeter=0;entryX=0;entryY=0.5;entryDx=0;entryDy=0;" edge="1" parent="1" source="7gqt0PY7z3TmWNlQmAuE-1" target="7gqt0PY7z3TmWNlQmAuE-5">
          <mxGeometry relative="1" as="geometry" />
        </mxCell>
        <mxCell id="WboAUmktUYQKjb9mAFGN-36" style="edgeStyle=orthogonalEdgeStyle;rounded=0;orthogonalLoop=1;jettySize=auto;html=1;exitX=0.5;exitY=0.5;exitDx=0;exitDy=0;exitPerimeter=0;" edge="1" parent="1" source="7gqt0PY7z3TmWNlQmAuE-1" target="7gqt0PY7z3TmWNlQmAuE-3">
          <mxGeometry relative="1" as="geometry" />
        </mxCell>
        <mxCell id="WboAUmktUYQKjb9mAFGN-38" style="edgeStyle=orthogonalEdgeStyle;rounded=0;orthogonalLoop=1;jettySize=auto;html=1;exitX=0.5;exitY=0.5;exitDx=0;exitDy=0;exitPerimeter=0;" edge="1" parent="1" source="7gqt0PY7z3TmWNlQmAuE-1" target="7gqt0PY7z3TmWNlQmAuE-3">
          <mxGeometry relative="1" as="geometry" />
        </mxCell>
        <mxCell id="WboAUmktUYQKjb9mAFGN-39" style="edgeStyle=orthogonalEdgeStyle;rounded=0;orthogonalLoop=1;jettySize=auto;html=1;exitX=0.5;exitY=0.5;exitDx=0;exitDy=0;exitPerimeter=0;entryX=0;entryY=0.5;entryDx=0;entryDy=0;" edge="1" parent="1" source="7gqt0PY7z3TmWNlQmAuE-1" target="oJB-THNjz2x2V4srmbNX-25">
          <mxGeometry relative="1" as="geometry" />
        </mxCell>
        <mxCell id="WboAUmktUYQKjb9mAFGN-41" style="edgeStyle=orthogonalEdgeStyle;rounded=0;orthogonalLoop=1;jettySize=auto;html=1;exitX=0.5;exitY=0.5;exitDx=0;exitDy=0;exitPerimeter=0;" edge="1" parent="1" source="7gqt0PY7z3TmWNlQmAuE-1" target="7gqt0PY7z3TmWNlQmAuE-3">
          <mxGeometry relative="1" as="geometry" />
        </mxCell>
        <mxCell id="WboAUmktUYQKjb9mAFGN-42" style="edgeStyle=orthogonalEdgeStyle;rounded=0;orthogonalLoop=1;jettySize=auto;html=1;exitX=0.5;exitY=0.5;exitDx=0;exitDy=0;exitPerimeter=0;" edge="1" parent="1" source="7gqt0PY7z3TmWNlQmAuE-1" target="7gqt0PY7z3TmWNlQmAuE-3">
          <mxGeometry relative="1" as="geometry" />
        </mxCell>
        <mxCell id="WboAUmktUYQKjb9mAFGN-43" style="edgeStyle=orthogonalEdgeStyle;rounded=0;orthogonalLoop=1;jettySize=auto;html=1;exitX=0.5;exitY=0.5;exitDx=0;exitDy=0;exitPerimeter=0;" edge="1" parent="1" source="7gqt0PY7z3TmWNlQmAuE-1" target="7gqt0PY7z3TmWNlQmAuE-3">
          <mxGeometry relative="1" as="geometry" />
        </mxCell>
        <mxCell id="WboAUmktUYQKjb9mAFGN-44" style="edgeStyle=orthogonalEdgeStyle;rounded=0;orthogonalLoop=1;jettySize=auto;html=1;exitX=0.5;exitY=0.5;exitDx=0;exitDy=0;exitPerimeter=0;entryX=0;entryY=0.5;entryDx=0;entryDy=0;" edge="1" parent="1" source="7gqt0PY7z3TmWNlQmAuE-1" target="oJB-THNjz2x2V4srmbNX-14">
          <mxGeometry relative="1" as="geometry" />
        </mxCell>
        <mxCell id="WboAUmktUYQKjb9mAFGN-45" style="edgeStyle=orthogonalEdgeStyle;rounded=0;orthogonalLoop=1;jettySize=auto;html=1;exitX=0.5;exitY=0.5;exitDx=0;exitDy=0;exitPerimeter=0;" edge="1" parent="1" source="7gqt0PY7z3TmWNlQmAuE-1" target="7gqt0PY7z3TmWNlQmAuE-3">
          <mxGeometry relative="1" as="geometry" />
        </mxCell>
        <mxCell id="WboAUmktUYQKjb9mAFGN-46" style="edgeStyle=orthogonalEdgeStyle;rounded=0;orthogonalLoop=1;jettySize=auto;html=1;exitX=0.5;exitY=0.5;exitDx=0;exitDy=0;exitPerimeter=0;entryX=0;entryY=0.5;entryDx=0;entryDy=0;" edge="1" parent="1" source="7gqt0PY7z3TmWNlQmAuE-1" target="oJB-THNjz2x2V4srmbNX-19">
          <mxGeometry relative="1" as="geometry" />
        </mxCell>
        <mxCell id="7gqt0PY7z3TmWNlQmAuE-1" value="User" style="shape=umlActor;verticalLabelPosition=bottom;verticalAlign=top;html=1;outlineConnect=0;" parent="1" vertex="1">
          <mxGeometry x="160" y="270" width="50" height="90" as="geometry" />
        </mxCell>
        <mxCell id="7gqt0PY7z3TmWNlQmAuE-4" value="Islamic App" style="text;html=1;strokeColor=none;fillColor=none;align=center;verticalAlign=middle;whiteSpace=wrap;rounded=0;" parent="1" vertex="1">
          <mxGeometry x="330" y="50" width="90" height="30" as="geometry" />
        </mxCell>
        <mxCell id="7gqt0PY7z3TmWNlQmAuE-5" value="&lt;font style=&quot;font-size: 10px;&quot;&gt;Read Quran Page&lt;/font&gt;" style="ellipse;whiteSpace=wrap;html=1;" parent="1" vertex="1">
          <mxGeometry x="330" y="80" width="90" height="50" as="geometry" />
        </mxCell>
        <mxCell id="7gqt0PY7z3TmWNlQmAuE-7" value="Search in quran" style="ellipse;whiteSpace=wrap;html=1;" parent="1" vertex="1">
          <mxGeometry x="330" y="140" width="90" height="40" as="geometry" />
        </mxCell>
        <mxCell id="7gqt0PY7z3TmWNlQmAuE-9" value="Get Aya tafseer &amp;amp; I3rab" style="ellipse;whiteSpace=wrap;html=1;" parent="1" vertex="1">
          <mxGeometry x="335" y="310" width="105" height="50" as="geometry" />
        </mxCell>
        <mxCell id="7gqt0PY7z3TmWNlQmAuE-10" value="Get Zekr by type" style="ellipse;whiteSpace=wrap;html=1;" parent="1" vertex="1">
          <mxGeometry x="330" y="370" width="100" height="50" as="geometry" />
        </mxCell>
        <mxCell id="7gqt0PY7z3TmWNlQmAuE-11" value="Search Zekr By Name" style="ellipse;whiteSpace=wrap;html=1;" parent="1" vertex="1">
          <mxGeometry x="330" y="430" width="100" height="50" as="geometry" />
        </mxCell>
        <mxCell id="7gqt0PY7z3TmWNlQmAuE-12" value="Resume quran Reading" style="ellipse;whiteSpace=wrap;html=1;" parent="1" vertex="1">
          <mxGeometry x="340" y="252.5" width="90" height="45" as="geometry" />
        </mxCell>
        <mxCell id="7gqt0PY7z3TmWNlQmAuE-13" value="QuranAya" style="swimlane;fontStyle=0;childLayout=stackLayout;horizontal=1;startSize=30;horizontalStack=0;resizeParent=1;resizeParentMax=0;resizeLast=0;collapsible=1;marginBottom=0;whiteSpace=wrap;html=1;" parent="1" vertex="1">
          <mxGeometry x="510" y="40" width="140" height="120" as="geometry" />
        </mxCell>
        <mxCell id="7gqt0PY7z3TmWNlQmAuE-14" value="Id" style="text;strokeColor=none;fillColor=none;align=left;verticalAlign=middle;spacingLeft=4;spacingRight=4;overflow=hidden;points=[[0,0.5],[1,0.5]];portConstraint=eastwest;rotatable=0;whiteSpace=wrap;html=1;" parent="7gqt0PY7z3TmWNlQmAuE-13" vertex="1">
          <mxGeometry y="30" width="140" height="30" as="geometry" />
        </mxCell>
        <mxCell id="7gqt0PY7z3TmWNlQmAuE-15" value="Number" style="text;strokeColor=none;fillColor=none;align=left;verticalAlign=middle;spacingLeft=4;spacingRight=4;overflow=hidden;points=[[0,0.5],[1,0.5]];portConstraint=eastwest;rotatable=0;whiteSpace=wrap;html=1;" parent="7gqt0PY7z3TmWNlQmAuE-13" vertex="1">
          <mxGeometry y="60" width="140" height="30" as="geometry" />
        </mxCell>
        <mxCell id="7gqt0PY7z3TmWNlQmAuE-16" value="Sura Number" style="text;strokeColor=none;fillColor=none;align=left;verticalAlign=middle;spacingLeft=4;spacingRight=4;overflow=hidden;points=[[0,0.5],[1,0.5]];portConstraint=eastwest;rotatable=0;whiteSpace=wrap;html=1;" parent="7gqt0PY7z3TmWNlQmAuE-13" vertex="1">
          <mxGeometry y="90" width="140" height="30" as="geometry" />
        </mxCell>
        <mxCell id="7gqt0PY7z3TmWNlQmAuE-8" value="Start/Resume Quran Khatma" style="ellipse;whiteSpace=wrap;html=1;" parent="1" vertex="1">
          <mxGeometry x="335" y="190" width="90" height="50" as="geometry" />
        </mxCell>
        <mxCell id="oJB-THNjz2x2V4srmbNX-10" value="Get nearst Mosque location" style="ellipse;whiteSpace=wrap;html=1;" parent="1" vertex="1">
          <mxGeometry x="287.5" y="880" width="142.5" height="60" as="geometry" />
        </mxCell>
        <mxCell id="oJB-THNjz2x2V4srmbNX-14" value="Get the Hijri calender" style="ellipse;whiteSpace=wrap;html=1;" parent="1" vertex="1">
          <mxGeometry x="300" y="1210" width="120" height="40" as="geometry" />
        </mxCell>
        <mxCell id="oJB-THNjz2x2V4srmbNX-16" value="Get&amp;nbsp; Prayer Timings" style="ellipse;whiteSpace=wrap;html=1;" parent="1" vertex="1">
          <mxGeometry x="315" y="490" width="135" height="50" as="geometry" />
        </mxCell>
        <mxCell id="oJB-THNjz2x2V4srmbNX-19" value="Get Tafseer dreams" style="ellipse;whiteSpace=wrap;html=1;" parent="1" vertex="1">
          <mxGeometry x="305" y="1270" width="120" height="40" as="geometry" />
        </mxCell>
        <mxCell id="oJB-THNjz2x2V4srmbNX-20" value="Search hadith by rawy&amp;nbsp;" style="ellipse;whiteSpace=wrap;html=1;" parent="1" vertex="1">
          <mxGeometry x="290" y="1140" width="127.5" height="30" as="geometry" />
        </mxCell>
        <mxCell id="oJB-THNjz2x2V4srmbNX-25" value="Reminder of missed prayers" style="ellipse;whiteSpace=wrap;html=1;" parent="1" vertex="1">
          <mxGeometry x="290" y="1060" width="135" height="50" as="geometry" />
        </mxCell>
        <mxCell id="oJB-THNjz2x2V4srmbNX-27" value="Get Allah Names" style="ellipse;whiteSpace=wrap;html=1;" parent="1" vertex="1">
          <mxGeometry x="305" y="750" width="120" height="40" as="geometry" />
        </mxCell>
        <mxCell id="oJB-THNjz2x2V4srmbNX-28" value="Get Meanings&lt;br&gt;of Allah Names&amp;nbsp;" style="ellipse;whiteSpace=wrap;html=1;" parent="1" vertex="1">
          <mxGeometry x="305" y="800" width="120" height="40" as="geometry" />
        </mxCell>
        <mxCell id="WboAUmktUYQKjb9mAFGN-2" value="Increment&amp;nbsp; Zekr counter" style="ellipse;whiteSpace=wrap;html=1;" vertex="1" parent="1">
          <mxGeometry x="318.75" y="550" width="120" height="60" as="geometry" />
        </mxCell>
        <mxCell id="WboAUmktUYQKjb9mAFGN-3" value="Get&amp;nbsp; Qiplah direction" style="ellipse;whiteSpace=wrap;html=1;" vertex="1" parent="1">
          <mxGeometry x="305" y="620" width="120" height="50" as="geometry" />
        </mxCell>
        <mxCell id="WboAUmktUYQKjb9mAFGN-4" value="search doaa by name" style="ellipse;whiteSpace=wrap;html=1;" vertex="1" parent="1">
          <mxGeometry x="304" y="680" width="120" height="50" as="geometry" />
        </mxCell>
        <mxCell id="WboAUmktUYQKjb9mAFGN-6" value="Question for fatwa" style="ellipse;whiteSpace=wrap;html=1;" vertex="1" parent="1">
          <mxGeometry x="299" y="970" width="120" height="60" as="geometry" />
        </mxCell>
        <mxCell id="WboAUmktUYQKjb9mAFGN-30" style="edgeStyle=orthogonalEdgeStyle;rounded=0;orthogonalLoop=1;jettySize=auto;html=1;exitX=0.5;exitY=0.5;exitDx=0;exitDy=0;exitPerimeter=0;entryX=0.105;entryY=0.559;entryDx=0;entryDy=0;entryPerimeter=0;" edge="1" parent="1" source="7gqt0PY7z3TmWNlQmAuE-1" target="7gqt0PY7z3TmWNlQmAuE-3">
          <mxGeometry relative="1" as="geometry" />
        </mxCell>
        <mxCell id="WboAUmktUYQKjb9mAFGN-31" style="edgeStyle=orthogonalEdgeStyle;rounded=0;orthogonalLoop=1;jettySize=auto;html=1;exitX=0.5;exitY=0.5;exitDx=0;exitDy=0;exitPerimeter=0;entryX=-0.005;entryY=0.614;entryDx=0;entryDy=0;entryPerimeter=0;" edge="1" parent="1" source="7gqt0PY7z3TmWNlQmAuE-1" target="7gqt0PY7z3TmWNlQmAuE-3">
          <mxGeometry relative="1" as="geometry" />
        </mxCell>
        <mxCell id="WboAUmktUYQKjb9mAFGN-32" style="edgeStyle=orthogonalEdgeStyle;rounded=0;orthogonalLoop=1;jettySize=auto;html=1;exitX=0.5;exitY=0.5;exitDx=0;exitDy=0;exitPerimeter=0;entryX=-0.008;entryY=0.65;entryDx=0;entryDy=0;entryPerimeter=0;" edge="1" parent="1" source="7gqt0PY7z3TmWNlQmAuE-1" target="WboAUmktUYQKjb9mAFGN-6">
          <mxGeometry relative="1" as="geometry" />
        </mxCell>
        <mxCell id="WboAUmktUYQKjb9mAFGN-33" style="edgeStyle=orthogonalEdgeStyle;rounded=0;orthogonalLoop=1;jettySize=auto;html=1;exitX=0.5;exitY=1;exitDx=0;exitDy=0;" edge="1" parent="1" source="7gqt0PY7z3TmWNlQmAuE-3" target="7gqt0PY7z3TmWNlQmAuE-3">
          <mxGeometry relative="1" as="geometry" />
        </mxCell>
        <mxCell id="WboAUmktUYQKjb9mAFGN-34" style="edgeStyle=orthogonalEdgeStyle;rounded=0;orthogonalLoop=1;jettySize=auto;html=1;exitX=0.5;exitY=1;exitDx=0;exitDy=0;" edge="1" parent="1" source="7gqt0PY7z3TmWNlQmAuE-3" target="7gqt0PY7z3TmWNlQmAuE-3">
          <mxGeometry relative="1" as="geometry" />
        </mxCell>
        <mxCell id="WboAUmktUYQKjb9mAFGN-35" style="edgeStyle=orthogonalEdgeStyle;rounded=0;orthogonalLoop=1;jettySize=auto;html=1;exitX=0.5;exitY=1;exitDx=0;exitDy=0;" edge="1" parent="1" source="7gqt0PY7z3TmWNlQmAuE-3" target="7gqt0PY7z3TmWNlQmAuE-3">
          <mxGeometry relative="1" as="geometry" />
        </mxCell>
        <mxCell id="WboAUmktUYQKjb9mAFGN-37" style="edgeStyle=orthogonalEdgeStyle;rounded=0;orthogonalLoop=1;jettySize=auto;html=1;exitX=0.5;exitY=0.5;exitDx=0;exitDy=0;exitPerimeter=0;entryX=0.053;entryY=0.667;entryDx=0;entryDy=0;entryPerimeter=0;" edge="1" parent="1" source="7gqt0PY7z3TmWNlQmAuE-1" target="7gqt0PY7z3TmWNlQmAuE-3">
          <mxGeometry relative="1" as="geometry" />
        </mxCell>
        <mxCell id="WboAUmktUYQKjb9mAFGN-40" style="edgeStyle=orthogonalEdgeStyle;rounded=0;orthogonalLoop=1;jettySize=auto;html=1;exitX=0.5;exitY=0.5;exitDx=0;exitDy=0;exitPerimeter=0;entryX=0.053;entryY=0.848;entryDx=0;entryDy=0;entryPerimeter=0;" edge="1" parent="1" source="7gqt0PY7z3TmWNlQmAuE-1" target="7gqt0PY7z3TmWNlQmAuE-3">
          <mxGeometry relative="1" as="geometry">
            <Array as="points">
              <mxPoint x="245" y="315" />
              <mxPoint x="245" y="1149" />
            </Array>
          </mxGeometry>
        </mxCell>
      </root>
    </mxGraphModel>
  </diagram>
</mxfile>
